<svg xmlns="http://www.w3.org/2000/svg" width="1706.667" height="956" version="1.0" viewBox="0 0 1280 717"><path d="m254.8 6.5-3.2 6.5H207v11.3c0 13.8-1.6 19.9-6.4 24.6-7.4 7.2-21.2 6.9-27.7-.5-4.1-4.7-4.8-7.8-5-21.8l-.1-13.6H110v12.2c0 9.8-.4 13.1-1.9 16.4-5.7 12.5-23.1 13.9-30.8 2.3-2.6-4-2.8-4.9-3.1-17.5L73.8 13H17V37.7l-4.6.6c-5.1.5-9.2 3.1-11.1 6.8C.3 46.9 0 57.8 0 88s.3 41.1 1.3 42.9c1.9 3.7 6 6.3 11.1 6.8l4.6.6v32.6c0 17.9.4 33.1.8 33.8.4.6 2 1.7 3.5 2.2 2 .8 63.3 1.1 200.3 1.1 217.7 0 200.1-.5 206.1 6.4 5.7 6.4 12.3 22.8 12.3 30.6 0 1.4.3 3.5.6 4.7l.6 2.3 115.2.2c106.4.3 115.6.5 121.1 2.1 15 4.4 26.6 13 31.4 23.1 1.4 3 2.6 8.3 3.2 14 2 18.8 3.7 25.4 9.7 37.5 9.4 18.8 26.4 32.7 48.2 39.2 7.4 2.3 8.6 2.3 74.5 2.8l67 .6 5 2.3c5.5 2.5 10.9 7.2 13 11.3.8 1.5 11.1 33.2 23 70.5 11.9 37.4 24.5 76.9 28 87.9 19.1 59.8 32.7 103.6 32.3 104-.3.3-4.2 1.6-8.8 3-4.6 1.4-8.6 2.7-8.8 3-.3.3 5.1 14.6 11.9 31.8l12.5 31.2 3.5-.3c12.8-1.3 238.3-55.9 246.3-59.7 13-6.1 13.4-13.4 2.5-37.7-5.6-12.3-12.6-29.9-52.9-132.8-43.2-110.4-66-166.9-77-191-7.9-17.1-7.9-24.3-.2-31.1 9-7.9 23.3-11.3 60.8-14.4 25-2 34.4-5.2 42.8-14.6 5.5-6 7.9-12 8.4-21.2.5-8.2-1.2-16.7-3.3-16.7-.6 0-5.6.7-11.1 1.5-18.4 2.8-30.5 1.5-42.3-4.4-11.3-5.8-23-19.2-28.6-32.9-1.3-3.1-4.2-12.4-6.4-20.6l-4.1-14.8 6.3-7.7c12.8-15.4 28-25.3 43.9-28.5 4.5-.9 12.8-1.6 19.7-1.6h12.1l1.5-3.8c3.8-9 5.8-16.2 6.2-23.3.5-6.3.2-8.2-1.6-11.6-2.6-5.3-3.7-5.9-5.2-3.1-.6 1.3-2.3 3.5-3.7 5.1-2.5 2.7-2.6 2.8-.9 5.6 2.9 5 2.2 8.7-2.7 13.9l-4.4 4.6-4-4.1c-7.2-7.4-15.6-7.2-31.6.5-5.8 2.9-11.7 5.2-13 5.2-3.7 0-6-4-5.4-9.4.8-6.6.2-7.1-7.4-5.3-6.6 1.5-9.8.9-9.8-1.7 0-.7 2.8-1.6 7.6-2.3 6.4-.9 8.2-1.6 10.7-4.1l3-3.1-3-3.4-3-3.4-1.6 2.9c-1.6 2.8-1.7 2.8-10.9 2.8h-9.2l-9.3-6.1-9.3-6.2V19l-34.7-.2-34.7-.3-3-9.3-3-9.2h-82.2l-3.2 6.5L969 13h-40.4c-44 0-46.1.2-51.9 5.8-3.8 3.6-5.8 7.5-6.6 13.1l-.6 4.6H727.9l-5.1-11.8-5-11.7H365.4L362 9.5 358.6 6h-44.2l-2.9-3-2.9-3H258l-3.2 6.5zm49.7 3.5 2.9 3h-22.2c-12.2 0-22.2-.2-22.2-.5 0-.2.5-1.6 1.2-3l1.1-2.5h36.3l2.9 3zm742.2 14.5c1.6 6.4 2.7 11.8 2.3 12-.4.2-10.1.4-21.7.4h-21l-.5-6.8c-.6-7.7-2.9-12-8.2-15.2-3.1-1.9-3.1-1.9 21.5-1.9h24.6l3 11.5zm-50.2-2c1.8 1.7 2.5 3.5 2.5 6.4 0 2.2-.4 4.2-.8 4.5-.5.3-3.7-2.3-7.1-5.8-6.6-6.7-6.6-7.4-.3-7.5 2.2-.1 4.1.7 5.7 2.4zM709.8 52.3l.2 27.8-23-.3c-20.4-.3-23.1-.5-24.7-2.1-1.6-1.6-1.8-4.3-2.1-24.8-.3-25 .1-27.2 5-28.2 1.3-.2 11.8-.4 23.3-.3l21 .1.3 27.8zM989.5 30c4.9 5 5.7 6.2 4.5 7-4 2.5-10.3 0-12.1-4.8-1-2.6-.3-8.2 1-8.2.3 0 3.3 2.7 6.6 6zM651 28.2c-1.6 2.7-2 5.1-2 13.6V52l-199.6-.2-199.5-.3V38.7c0-7 0-12.9.1-13.2 0-.3 90.7-.5 201.5-.5H653l-2 3.2zm323.8 2.5-.3 5.8h-94l.1-3.8c.1-2.1.9-4.6 1.9-5.7 1.8-1.9 3.3-2 47.2-2h45.4l-.3 5.7zM52 31.2c0 7.1 1.5 12.2 5.6 18.5L61 55l-18.2-.2-18.3-.3-.3-14.3-.3-14.2H52v5.2zm95.2 2.7c.4 6.1 1.1 9.2 3.4 13.7 1.6 3.2 3.1 6.2 3.2 6.6.2.5-9.6.8-21.7.8H110l3.4-5.3c4.1-6.3 5.6-11.4 5.6-18.5V26H146.7l.5 7.9zm82.8 6.6V55h-23l2.9-5.3C213 44.2 215 36.4 215 30v-4h15v14.5zm881.6 2.7c1.2 3.6 2.5 7.6 2.9 8.7l.6 2.1H880V42h192.2l-.4-3-.5-3 19 .2 19 .3 2.3 6.7zm16.1 17.1c32 95 37.8 111.8 40.4 116.7 8.7 16.3 25.9 27.4 46.7 30 4.7.6 10.4.7 14.1.2 7.3-1 8.1-.3 8.1 7.5 0 8.5-5.6 14.3-16.9 17.7-7.8 2.3-19.2 3.1-21.3 1.4-2.8-2.1-.7-3.8 6.1-4.8 10.7-1.5 14.3-5.8 10.2-12.3-2.4-3.8-4.2-4.9-13.1-7.8-3.6-1.1-10.1-3.8-14.5-5.9-9.3-4.5-18.2-12.9-24-22.5-3.1-5.2-20.7-56.6-45.3-132.3l-4-12.2h2.7c2.5 0 2.9.8 10.8 24.3zM869.8 48.2l.3 5.8H740V42l64.8.2 64.7.3.3 5.7zM17 59.6c0 10.6-.3 12.8-3.7 24.1L9.5 96.2l-.3-22.8c-.2-20.6-.1-23 1.5-24.1.9-.7 2.7-1.3 4-1.3 2.3 0 2.3.1 2.3 11.6zM1131.6 105c8.4 26.1 15.4 47.8 15.4 48.2 0 .5-3.8.8-8.4.8h-8.5l-2.2-4c-3.5-6.2-6.2-7-24.8-7H1087v-18h5.3c9.4-.1 17.5-4.5 22.3-12.2 10.8-17.1-1.4-39.8-21.5-39.9l-6.1-.1V56.9l14.6.3 14.7.3 15.3 47.5zM649.2 67.7c.7 14 4.4 19.3 14.9 21.3 6.9 1.3 187.3 1.3 195.4 0 11.5-1.9 18.8-10.5 20.2-23.8l.6-6.2H958v96H431.7l-9.9-9.5-9.9-9.5H250V59h398.8l.4 8.7zM869.1 64c-.2 2.5-1.2 6.2-2.2 8.2-3.7 7.2.1 6.8-64.4 6.8-31.9 0-58.5-.4-59.1-.8-2.3-1.5-3.4-5.3-3.4-12.1V59l64.8.2 64.7.3-.4 4.5zM975 107v48h-10V59h10v48zm17 0v48h-10.5V59H992v48zm16 0v48h-10V59h10v48zm17 0v48h-10V59h10v48zm17 0v48h-10V59h10v48zm17 0v48h-10V59h10v48zm16.2-37.8c-.3 9.1-.6 10.6-2.7 12.8-7.9 8.6-8.3 22.8-.9 32.6l3.4 4.4v36h-9l-.2-24.8c-.1-13.6-.2-35.2-.2-47.9l-.1-23.3h10l-.3 10.2zm-1002.6-7c3.8 1.8 6.7 2.3 12.9 2.3s9.1-.5 12.9-2.3c4.7-2.1 6-2.2 33.4-2.2 26.3 0 28.7.1 31.6 1.9 1.7 1.1 5.8 2.7 9 3.6 7.8 2.3 15.1 1.5 23.1-2.4 6.1-3 6.6-3.1 20.9-3.1H231v76H24V60h21.9c20.5 0 22.1.1 26.7 2.2zm1027.7 17c.9.5 1.7 1.2 1.7 1.6 0 .4-5.6 6.3-12.5 13.2-13.7 13.6-13.8 13.6-15.1 5.2-1.4-9.4 4.3-18.4 13.1-20.7 5-1.3 9.4-1 12.8.7zm9.6 9.9c2.7 7.7.7 15.4-5.2 20.6-6 5.2-15.3 6.5-20.4 2.8-1.6-1.2-.6-2.5 10.7-13.7 6.9-6.8 12.8-12.5 13.2-12.6.3-.1 1.1 1.2 1.7 2.9zm-677.6 79.7c6.1 10.4 11.4 22.9 13.8 32.7 1.4 6.1 1.9 11.5 1.8 23v15l-1.8-6c-3.9-13.4-13.2-27.2-20.8-30.9l-4.2-2.1-.1-22.9v-23l3.3 3.2c1.9 1.8 5.4 6.8 8 11zm720.6 1.9c1.2 3.8 3.6 8.9 5.2 11.6 3.1 5.1 3.6 6.5 1.7 4.9-.7-.5-7.4-4.4-15-8.6l-13.6-7.6H890v-7H1150.7l2.2 6.7zm-469.1-.7c-8.3 5.5-12.7 14.1-12.7 25-.1 6.8 2.8 15 6.2 17.9 2.8 2.3 1.9 3-1.5 1.3-3-1.6-12-1.7-112.5-1.4l-109.2.4-.5-2.4c-.3-1.2-.7-4.6-1.1-7.4-.8-7.1-4.5-17.7-9.8-27.9l-4.4-8.5h250l-4.5 3zm-453.9 7-.1 9-82.7-.1c-90.4-.1-88.1.1-55.6-5.3 21-3.5 47.6-6.6 74-8.7 18.3-1.4 52.6-3.6 59.3-3.8l5.3-.1-.2 9zm183.1 0v9H249v-18h164v9zm452.3-7.5c9.4 3.9 15.7 13.5 15.7 24-.1 10.3-5.2 18.6-14.5 22.9-7.3 3.5-9.5 3.4-9.5-.3 0-2.4.5-2.9 3.2-3.5 1.8-.3 4.9-1.8 6.8-3.1 13.3-9.2 9.6-31.3-6-35.2-2.8-.7-3.6-1.5-3.8-3.6-.3-2.3 0-2.7 2.1-2.7 1.4 0 4.1.7 6 1.5zM774 193v21h-36.2c-20 0-38-.4-40.1-.9-20.7-4.8-21.3-33.9-.9-40.1 1.5-.5 19.5-.9 40-.9l37.2-.1v21zm70-19c0 2-.7 2-31.5 2-17.3 0-31.5.4-31.5.8 0 2.9 2.9 3.2 35.2 3.2 32.1 0 32.8 0 32.8 2s-.7 2-32.6 2c-25.6 0-32.5.3-32.2 1.2.4 1 8.6 1.4 35.6 1.6 34.4.2 35.2.3 35.2 2.2 0 2-.7 2-35.1 2-32.8 0-35 .1-34.7 1.7.3 1.7 2.8 1.8 32.1 2.1 30.9.2 31.7.3 31.7 2.2 0 2-.7 2-32 2-31.5 0-32 0-32 2s.5 2.1 29.3 2c27.5-.1 29.2 0 29.2 1.7s-1.9 1.8-29.9 2.3c-22.7.4-30 .8-30.4 1.7-.3 1 5.5 1.3 26.7 1.3 26.4 0 27.1 0 27.1 2s-.7 2-27.9 2c-27.8 0-28 0-29.5 2.2-1.5 2.1-1.6.3-1.6-21V172h33c32.3 0 33 0 33 2zm225.2 8.6c-22 10.6-43.9 16.4-70 18.6-30.1 2.6-65.7-3.8-94.5-17.1-16.8-7.8-24.3-7.1 81.3-7l94.5.1-11.3 5.4zm59.8.4v6l-21.7-.2-21.8-.3-.3-5.8-.3-5.7h44.1v6zm48.8 18.7c15.9 8.6 20.2 11.6 20.2 13.9 0 2.1-3.5 3.4-9.3 3.4-13.2 0-33.3 5.5-44.2 12.1-5.9 3.6-14.1 10.8-16.7 14.7-1.5 2.2-1.8 2.3-4.4.9-4.7-2.4-15.8-13.2-21.3-20.6-5.2-7-10.3-17.1-11.5-22.8l-.7-3.1 4.2 1.4c7.4 2.6 23.8 4.6 31.4 3.9 15.8-1.5 21.3-7.4 16.6-18-1.2-2.6-2.1-4.9-2.1-5.1 0-.7 20.9 10 37.8 19.3zm-184 20c4.8 3.5 7.2 8.1 7.2 13.5 0 4.6-2.4 11.8-3.9 11.8-.5-.1-14.9-24.6-16-27.3-.7-1.8 9.9-.1 12.7 2zM762.1 225c1 .6 1.9 1.9 1.9 3s-.9 2.4-1.9 3c-1.2.6-12.9 1-31 1-25 0-29.2-.2-30.5-1.6-.9-.8-1.6-1.9-1.6-2.4s.7-1.6 1.6-2.4c1.3-1.4 5.5-1.6 30.5-1.6 18.1 0 29.8.4 31 1zm123.3 1.2c.8 1.3.8 2.3 0 3.5-1 1.7-4.8 1.8-51.2 2.1-44.5.2-50.2 0-51.6-1.4-.9-.8-1.6-1.9-1.6-2.4s.7-1.6 1.6-2.4c1.4-1.4 7.1-1.6 51.6-1.4 46.4.3 50.2.4 51.2 2zm95 11.9c4.2 7.3 7.4 13.4 7.1 13.7-1 1-7.5.3-10.2-1.2-5.9-3-9.3-8.7-9.3-15.2 0-3.9 2.4-10.4 3.8-10.4.6 0 4.4 5.9 8.6 13.1zm-224.9 13.2c-17.3 12.6-26.6 33.9-23.6 53.7 3.5 22.2 19.1 39.5 40.7 45 7.3 1.9 11.2 2 79.6 2h71.9l1.9 4.6c1.1 2.5 2 4.8 2 5 0 .3-32.7.4-72.7.2-71.2-.4-73-.4-80.6-2.6-20-5.6-36.6-19.2-45.6-37.7-3.8-7.8-5.8-15.8-7.1-27.6-.5-5.2-1.5-11.2-2.1-13.4-2-7.4-8.3-17.9-14.8-24.7l-6.3-6.8 29.8.1h29.9l-3 2.2zm68.7 5.2c4 7.4 7.9 18.4 9.8 27.5 1.5 7.4 1.3 27.8-.4 36.5-.8 3.8-1.3 7.1-1.1 7.3.6.6 5.6-12 7.9-20 3.7-12.8 5-27.5 3.7-40.1-.6-5.7-1.6-11.9-2.1-13.8-.6-1.9-1-3.8-1-4.3 0-1.7 28.9.1 35.7 2.2 16.9 5.3 29.5 20 32.5 37.9 3.9 23.2-11.1 46.6-33.9 52.9-6.1 1.7-10.9 1.9-48.3 1.9-46.8 0-49.8-.4-60.8-7.4C729 313 741.7 256 785.5 250c3.3-.4 12.5-.7 20.4-.6l14.5.1 3.8 7zM1184 594.6c5.8.8 13.4 2.3 17 3.2l6.5 1.6-91.5 22.7c-50.3 12.6-91.9 22.8-92.3 22.9-1.2 0 8.8-8.6 16.8-14.5 28.3-20.9 62.8-34.1 98.5-37.5 11.8-1.1 31.2-.4 45 1.6zm54.5 22.9c2.1 6 5.5 15.9 7.6 22 2.2 6 3.9 11.2 3.9 11.6 0 .7-15.8 4.4-16.4 3.8-.3-.4-8.8-23-14.3-38.2-1.3-3.8-2.2-7.1-1.9-7.4.9-.9 16.1-4 16.7-3.4.3.3 2.3 5.5 4.4 11.6zm-40-1.3c.4 1.3 3.8 11.3 7.6 22.2 3.8 10.9 6.9 20.4 6.9 21 0 1.2-10.2 3.7-117 28.6-28.3 6.6-55.9 13.1-61.3 14.4l-9.9 2.4-1.7-4.1c-5.5-13.1-15.4-38.7-15-39 .2-.3 36.9-9.5 81.4-20.6 44.6-11.1 86.9-21.7 94-23.5 7.2-1.8 13.3-3.4 13.7-3.5.4 0 1 .9 1.3 2.1z"/><path d="M1198.3 29.9c-2.4.4-4.6 1-4.9 1.4-1.2 1.1 1.5 8.4 4.2 11.7 4.3 5.1 8.4 3.2 8.4-4 0-2.7-2.4-10.2-3.2-9.9-.2.1-2.2.5-4.5.8zM1210.5 29.9c-1 .9-.4 10.7.8 13 2.1 4.1 4.3 4.9 6.9 2.3 1.9-1.8 2.3-3.3 2.3-8.5v-6.2l-4.8-.5c-2.6-.4-5-.4-5.2-.1zM1181.5 34.9c-5.8 3.5-6 4.5-1.8 8.9 5.8 6.1 12.3 7 12.3 1.7 0-3.2-2.1-7.3-5.2-10.2-2.3-2.2-2.4-2.2-5.3-.4zM1227 37.6c-9 10.3-4.3 18.4 5.8 9.9 6.5-5.6 6.5-8.7.1-12-2.6-1.4-2.9-1.3-5.9 2.1z"/></svg>