<svg xmlns="http://www.w3.org/2000/svg" xml:space="preserve" style="enable-background:new 0 0 511.998 511.998" viewBox="0 0 511.998 511.998"><path d="m416.422 260.426 9.584 55.385c-50.508 12.682-105.409 3.606-149.674-27.202a183.22 183.22 0 0 1-24.952-20.898l39.618-39.618c33.955 33.967 82.321 44.736 125.424 32.333z" style="fill:gray"/><path d="m234.197 332.062 20.753 71.685-34.426 14.63-19.289-45.765a31.832 31.832 0 0 0-15.9-16.481l-15.283-7.091 40.562-40.562 23.583 23.584zM338.167 164.576l-42.764 42.764-30.821-30.82-.629-.629 42.764-42.764 6.764 6.764-.629.629 20.123 20.124.63-.629z" style="fill:#fcbb29"/><path d="m251.38 267.711-21.067 21.079-19.7 19.688-40.561 40.562-3.836-3.836-25.375-25.388v-20.801l123.112-123.124.629.629 30.821 30.82-4.405 20.753z" style="fill:#4d4d4d"/><path d="m140.841 319.816 25.375 25.388-70.281 157.72-67.534-41.771 60.116-78.086 23.427-7.805z" style="fill:#fcbb29"/><path d="M490.018 16.435a9.075 9.075 0 0 0-12.834-12.834l-3.331 3.331-4.274-4.274a9.076 9.076 0 0 0-12.834 12.835l4.274 4.274-60.202 60.203-21.947-9.976a9.077 9.077 0 0 0-10.173 1.845l-55.217 55.217-.344-.344c-3.544-3.544-9.291-3.544-12.834 0L134.419 292.593a9.07 9.07 0 0 0-2.659 6.417v18.588l-26.167 50.212-19.942 6.647a9.06 9.06 0 0 0-4.321 3.074l-60.124 78.082a9.074 9.074 0 0 0 2.416 13.255l67.541 41.774a9.072 9.072 0 0 0 7.447.954 9.073 9.073 0 0 0 5.617-4.979l65.762-147.602 11.52 5.349a22.656 22.656 0 0 1 11.359 11.773l19.289 45.762a9.074 9.074 0 0 0 11.911 4.829l34.434-14.622a9.074 9.074 0 0 0 5.169-10.877l-19.263-66.547 33.913-33.913c16.372 10.333 34.258 18.19 53.059 23.183a193.708 193.708 0 0 0 49.7 6.47c15.849 0 31.703-1.936 47.138-5.812a9.075 9.075 0 0 0 6.733-10.351l-9.593-55.386a9.076 9.076 0 0 0-11.452-7.172c-39.855 11.471-82.684 1.24-112.984-26.671l2.796-13.176 40.863-40.864a9.07 9.07 0 0 0 1.583-10.702l63.039-63.039 80.815-80.814zM149.911 302.77l114.042-114.042 21.545 21.545-2.823 13.306-112.623 112.625-20.142-20.14V302.77h.001zm84.29 16.452-10.75-10.75 6.855-6.855 10.749 10.75-6.854 6.855zM91.877 489.74l-50.155-31.02 52.298-67.919 20.795-6.931a9.071 9.071 0 0 0 5.178-4.416l23.173-44.466 12.217 12.217L91.877 489.74zm133.474-83.275-15.754-37.377a40.778 40.778 0 0 0-20.442-21.187l-3.504-1.628 24.966-24.966 15.517 15.516L244 398.545l-18.649 7.92zm28.539-106.932-10.75-10.75 8.404-8.404a192.905 192.905 0 0 0 11.678 9.821l-9.332 9.333zm155.248-27.959 6.457 37.281c-26.282 5.264-53.611 4.442-79.555-2.447-26.599-7.064-51.201-20.428-71.664-38.861l26.832-26.832c32.254 28.228 75.986 39.653 117.93 30.859zM295.4 194.504l-18.611-18.611 29.319-29.319c.109.121.211.244.326.361l18.267 18.267-29.301 29.302zm38.205-47.326-7.291-7.291 50.768-50.768 10.024 4.556-53.501 53.503z" style="fill:#333"/><path d="M181.453 306.461a9.044 9.044 0 0 0 6.417-2.659l17.529-17.529a9.075 9.075 0 0 0-12.834-12.834l-17.529 17.529a9.075 9.075 0 0 0 0 12.834 9.046 9.046 0 0 0 6.417 2.659z" style="fill:#333"/></svg>