<svg xmlns="http://www.w3.org/2000/svg" xml:space="preserve" style="enable-background:new 0 0 511.98 511.98" viewBox="0 0 511.98 511.98"><path d="M229.796 350.068a10.655 10.655 0 0 1-10.719 2.656l-23.007-7.171c-5.625-1.75-8.765-7.719-7.015-13.344 1.758-5.624 7.734-8.765 13.358-7.015l23.007 7.155c5.625 1.75 8.765 7.734 7.007 13.359a10.554 10.554 0 0 1-2.631 4.36z" style="fill:#434a54"/><path d="M131.346 508.859a10.598 10.598 0 0 1-4.094 2.547 10.69 10.69 0 0 1-8.937-.938l-75.419-45.249a10.684 10.684 0 0 1-5.062-7.547 10.648 10.648 0 0 1 2.586-8.702l90.997-101.995a10.584 10.584 0 0 1 5.398-3.25l8.383-2.078c3.476-12.656 12.804-40.452 31.413-59.076h.008L380.64 78.548c2-2 4.703-3.125 7.531-3.125s5.547 1.125 7.547 3.125l30.17 30.17a10.666 10.666 0 0 1 0 15.094L209.296 340.397l-7.039 49.278a10.659 10.659 0 0 1-5.898 8.094L170.79 410.19l-37.046 95.013a10.68 10.68 0 0 1-2.398 3.656z" style="fill:#ccd1d9"/><path d="M388.172 75.423c-2.828 0-132.377 134.729-128.214 138.9l30.172 30.17a10.652 10.652 0 0 0 15.077 0l113.136-113.136 7.546-7.546a10.666 10.666 0 0 0 0-15.094l-30.17-30.17a10.684 10.684 0 0 0-7.547-3.124z" style="fill:#965353"/><path d="m403.265 146.436 15.078-15.078-45.249-45.264-15.092 15.093zM373.094 176.607l15.078-15.078-45.247-45.264-15.094 15.093zM342.925 206.777l15.077-15.078-45.248-45.263-15.093 15.093zM312.754 236.948l15.077-15.094-45.248-45.247-15.078 15.077z" style="fill:#7f4545"/><path d="M471.137 18.222 206.781 282.571c-4.164 4.172-10.914 4.172-15.085 0-4.164-4.156-4.164-10.905 0-15.077L456.06 3.129c4.156-4.172 10.921-4.172 15.077 0a10.665 10.665 0 0 1 0 15.093z" style="fill:#e6e9ed"/><path d="M203.32 265.181a10.667 10.667 0 0 0-11.624 2.312l-15.078 15.077h-.008c-18.608 18.624-27.937 46.42-31.413 59.076l-8.383 2.078a10.616 10.616 0 0 0-5.398 3.25L40.42 448.97a10.652 10.652 0 0 0-2.586 8.702 10.69 10.69 0 0 0 5.062 7.547l75.419 45.249a10.698 10.698 0 0 0 13.031-1.609 10.704 10.704 0 0 0 2.398-3.656l37.046-95.013 25.569-12.421a10.659 10.659 0 0 0 5.898-8.094l7.547-52.794c.07-.5.102-1 .102-1.5V275.04c0-4.312-2.594-8.202-6.586-9.859z" style="fill:#965353"/></svg>