<svg xmlns="http://www.w3.org/2000/svg" xml:space="preserve" style="enable-background:new 0 0 511.996 511.996" viewBox="0 0 511.996 511.996"><path d="m341.565 163.824-68.457 79.336-28.778-28.777 73.902-73.892 17.106 17.106zM280.885 280.497l-33.442 33.452-22.562-22.562 33.453-33.442z" style="fill:gray"/><path d="m273.108 243.16-14.774 14.785-33.453 33.442-16.336 16.336-28.778 28.789-33.024 33.024-11.925-25.555c-.176-.363-.33-.737-.484-1.1a21.579 21.579 0 0 1 4.785-23.277l31.704-31.704 48.227-48.238 25.279-25.279 28.779 28.777z" style="fill:#b3b3b3"/><path d="m178.689 244.238-18.756 18.757-38.403 38.414-17.117-17.117 94.803-94.804 17.106 17.117-22.166 22.166z" style="fill:#4d4d4d"/><path d="M204.343 391.636a11.812 11.812 0 0 1-4.587 14.862l-27.766 17.128-11.606-24.872-13.641-29.218 33.024-33.024L191.67 363.2l12.673 28.436z" style="fill:gray"/><path d="m146.743 369.536 13.641 29.218-1.617.759-71.57 104.231-.792-1.155a178.038 178.038 0 0 0-26.479-30.395 178.531 178.531 0 0 0-32.617-23.673l105.012-105.012 2.013-.627c.154.363.308.737.484 1.1l11.925 25.554z" style="fill:#666"/><path d="M490.523 2.417a8.25 8.25 0 0 0-11.667 0l-41.615 41.615-7.39-7.39a8.25 8.25 0 0 0-11.667 11.668l7.39 7.39-53.534 53.531-24.193-4.838a8.246 8.246 0 0 0-7.452 2.256L217.45 229.595l-8.769-3.678 8.768-8.768c.425.066.851.108 1.28.108a8.222 8.222 0 0 0 5.834-2.417 8.25 8.25 0 0 0 0-11.667l-21.919-21.919a8.25 8.25 0 0 0-11.667 0 8.228 8.228 0 0 0-2.308 7.114l-85.379 85.379a8.227 8.227 0 0 0-7.114 2.308 8.25 8.25 0 0 0 0 11.667l21.919 21.919c1.61 1.612 3.723 2.417 5.834 2.417s4.223-.805 5.834-2.417a8.228 8.228 0 0 0 2.308-7.114l25.007-25.007 3.678 8.769-27.472 27.472c-6.773 6.773-9.74 16.312-8.384 25.497L21.473 442.685a8.248 8.248 0 0 0 1.774 13.016c22.326 12.619 41.817 30.452 56.364 51.57l.796 1.156a8.25 8.25 0 0 0 6.794 3.57h.007a8.25 8.25 0 0 0 6.795-3.581l64.564-94.039 5.945 12.739a8.255 8.255 0 0 0 11.809 3.534l27.763-17.131c8.516-5.254 11.865-16.108 7.791-25.247l-10.271-23.041 22.889-22.89a8.25 8.25 0 0 0 1.993-8.443l-8.111-24.332 6.507-6.507 16.724 16.724a8.25 8.25 0 0 0 11.667 0l33.447-33.449a8.25 8.25 0 0 0 0-11.667l-16.724-16.724 77.811-88.732a8.25 8.25 0 0 0-.413-11.223l-.389-.389L490.523 14.084a8.25 8.25 0 0 0 0-11.667zM178.695 232.57l-5.445-5.445 25.965-25.965 5.445 5.445-25.965 25.965zm-17.114 6.223 5.445 5.445-45.502 45.502-5.445-5.445 45.502-45.502zm8.101 26.124 26.393-26.393 8.769 3.678-31.484 31.484-3.678-8.769zM87.008 489.454a188.105 188.105 0 0 0-46.425-42.542l90.795-90.795 19.089 40.907-63.459 92.43zm108.412-89.978-19.875 12.264-18.882-40.46 20.454-20.453 19.688 44.165a3.574 3.574 0 0 1-1.385 4.484zm13.8-65.196-14.811 14.811-4.796-10.761 15.719-15.719 3.888 11.669zm-59.981 21.089-6.943-14.877c-2.361-5.059-1.295-11.111 2.653-15.059l99.381-99.381 17.114 17.113-112.205 112.204zm98.202-53.087-10.891-10.89 21.78-21.78 10.89 10.891-21.779 21.779zm25.224-71.231-16.667-16.667 62.23-62.23 11.277 11.277.002.002.002.002.801.801-57.645 66.815zm57.229-90.564 19.047-19.047 9.076 1.815-22.677 22.677-5.446-5.445z" style="fill:#333"/></svg>